<svg xmlns="http://www.w3.org/2000/svg" viewBox="0 0 512 512">
  <defs>
    <linearGradient id="sunG" x1="0" y1="0" x2="1" y2="1">
      <stop offset="0%" stop-color="#FFE55C"/>
      <stop offset="100%" stop-color="#FFA726"/>
    </linearGradient>
    <linearGradient id="cloudG" x1="0" y1="0" x2="0" y2="1">
      <stop offset="0%" stop-color="#FFFFFF"/>
      <stop offset="100%" stop-color="#C8E8F8"/>
    </linearGradient>
    <filter id="sunShadow">
      <feDropShadow dx="0" dy="0" stdDeviation="12" flood-color="#FFD740" flood-opacity="0.55"/>
    </filter>
    <filter id="cloudShadow">
      <feDropShadow dx="0" dy="8" stdDeviation="12" flood-color="rgba(0,60,140,0.22)"/>
    </filter>
  </defs>
  <g transform="translate(256,256) scale(0.8) translate(-256,-256)">
    <circle cx="178" cy="192" r="86" fill="url(#sunG)" filter="url(#sunShadow)"/>
    <g stroke="#FFD740" stroke-width="14" stroke-linecap="round" opacity="0.72">
      <line x1="178" y1="74"  x2="178" y2="44"/>
      <line x1="261" y1="109" x2="282" y2="88"/>
      <line x1="296" y1="192" x2="326" y2="192"/>
      <line x1="261" y1="275" x2="282" y2="296"/>
      <line x1="95"  y1="109" x2="74"  y2="88"/>
      <line x1="60"  y1="192" x2="30"  y2="192"/>
      <line x1="95"  y1="275" x2="74"  y2="296"/>
    </g>
    <g filter="url(#cloudShadow)">
      <ellipse cx="300" cy="318" rx="148" ry="74"  fill="url(#cloudG)"/>
      <ellipse cx="196" cy="340" rx="96"  ry="64"  fill="url(#cloudG)"/>
      <ellipse cx="392" cy="340" rx="82"  ry="58"  fill="url(#cloudG)"/>
      <ellipse cx="252" cy="282" rx="92"  ry="72"  fill="url(#cloudG)"/>
      <ellipse cx="342" cy="274" rx="84"  ry="68"  fill="url(#cloudG)"/>
    </g>
    <g fill="#62C4F0" opacity="0.88">
      <rect x="184" y="418" width="16" height="42" rx="8"/>
      <rect x="246" y="436" width="16" height="42" rx="8"/>
      <rect x="308" y="418" width="16" height="42" rx="8"/>
      <rect x="370" y="436" width="16" height="42" rx="8"/>
    </g>
  </g>
</svg>
